<?xml version="1.0" encoding="UTF-8" standalone="no"?>
<!DOCTYPE svg PUBLIC "-//W3C//DTD SVG 1.1//EN" "http://www.w3.org/Graphics/SVG/1.1/DTD/svg11.dtd">
<svg xmlns="http://www.w3.org/2000/svg" version="1.1" viewBox="0 0 943 1111" width="100%" height="100%">
<path d="M 0.00 0.00 L 943.00 0.00 L 943.00 1111.00 L 0.00 1111.00 L 0.00 0.00 Z" fill="none" />
<path d="M 712.37 161.46 C 713.93 166.89 716.21 173.12 715.53 178.81 C 715.01 182.56 713.92 186.26 712.86 189.89 C 711.27 195.47 708.17 200.30 706.76 205.96 C 703.39 219.73 698.97 233.43 691.66 245.66 C 685.61 257.30 679.95 269.18 673.69 280.71 C 668.04 291.15 660.08 300.98 653.63 310.60 C 650.24 316.42 646.12 321.70 641.84 326.88 C 638.09 330.93 632.64 334.26 626.99 334.36 C 620.04 334.43 613.38 332.47 607.90 328.14 C 603.51 325.29 601.48 320.74 597.53 317.48 C 591.07 312.03 585.50 305.70 579.55 299.47 C 572.97 292.63 567.55 284.88 561.11 277.92 C 548.84 264.38 538.52 249.01 530.33 232.69 C 525.75 223.98 521.47 215.15 518.02 205.92 C 517.25 203.76 516.89 201.50 516.43 199.23 C 517.34 199.85 518.25 200.46 519.16 201.07 C 518.91 200.03 518.66 198.99 518.41 197.94 C 520.39 194.59 521.60 190.86 523.49 187.48 C 526.29 184.84 530.59 183.53 534.13 182.15 C 539.74 180.29 545.08 177.61 550.78 176.69 C 555.61 175.84 560.49 175.32 565.31 174.41 C 571.33 173.30 576.79 171.55 583.00 171.62 C 597.41 171.63 611.52 173.08 625.99 171.85 C 631.73 171.26 637.29 172.69 643.01 172.24 C 652.03 171.52 660.90 171.89 669.82 169.97 C 675.38 169.05 680.17 166.27 685.78 165.72 C 690.94 165.19 696.01 164.47 701.00 163.03 C 704.72 161.89 708.49 161.56 712.37 161.46 Z" fill="#ffc860" class="earsHalfWhite" />
<path d="M 122.50 163.86 C 126.32 163.44 130.19 163.35 134.02 163.15 C 138.61 162.85 143.03 165.43 147.50 166.63 C 161.12 170.56 177.11 169.57 190.99 171.84 C 197.06 172.72 202.89 172.87 208.99 172.17 C 213.72 171.64 218.28 172.82 223.00 172.37 C 226.00 172.11 228.98 171.73 232.00 171.74 C 243.12 171.87 253.79 170.89 265.01 172.03 C 268.67 172.43 272.32 172.53 276.00 172.49 C 283.67 172.27 291.40 173.55 298.85 175.26 C 305.76 177.02 310.87 181.18 316.23 185.61 C 316.36 190.25 316.96 194.47 315.99 199.04 C 314.83 204.57 313.83 210.58 311.57 215.76 C 307.81 224.24 302.16 232.28 299.03 240.99 C 297.28 245.78 294.65 250.10 292.69 254.80 C 289.10 263.44 282.07 270.96 276.89 278.92 C 272.48 284.96 268.70 292.26 263.07 297.10 C 255.97 303.58 250.40 311.89 244.02 319.03 C 239.10 324.38 233.12 326.39 227.25 330.40 C 225.32 331.50 223.38 333.24 221.01 332.76 C 216.75 332.24 212.58 329.96 208.64 328.32 C 202.53 325.72 197.43 321.87 192.36 317.64 C 189.09 315.15 189.47 311.25 186.56 308.46 C 182.39 304.28 178.46 299.86 174.64 295.36 C 172.22 292.54 172.14 288.94 169.86 286.14 C 160.95 276.09 153.92 264.20 147.61 252.39 C 145.83 249.20 145.13 245.67 143.60 242.40 C 136.63 230.30 131.85 216.77 127.54 203.52 C 124.39 194.13 123.53 184.63 122.64 174.83 C 122.40 171.22 122.06 167.46 122.50 163.86 Z" fill="#ffc860" class="earsHalfWhite" />
</svg>