<?xml version="1.0" encoding="UTF-8" standalone="no"?>
<svg
   version="1.1"
   viewBox="0 0 943 1111"
width="100%"   height="100%"
   id="svg48"
   sodipodi:docname="tail_stripes.svg"
   inkscape:version="1.2.2 (732a01da63, 2022-12-09)"
   xmlns:inkscape="http://www.inkscape.org/namespaces/inkscape"
   xmlns:sodipodi="http://sodipodi.sourceforge.net/DTD/sodipodi-0.dtd"
   xmlns="http://www.w3.org/2000/svg"
   xmlns:svg="http://www.w3.org/2000/svg">
  <defs
     id="defs52" />
  <sodipodi:namedview
     id="namedview50"
     pagecolor="none"
     bordercolor="#000000"
     borderopacity="0.25"
     inkscape:showpageshadow="2"
     inkscape:pageopacity="0.0"
     inkscape:pagecheckerboard="0"
     inkscape:deskcolor="#d1d1d1"
     inkscape:document-units="pt"
     showgrid="false"
     showguides="true"
     inkscape:zoom="0.55963096"
     inkscape:cx="432.42782"
     inkscape:cy="740.66667"
     inkscape:window-width="1350"
     inkscape:window-height="1032"
     inkscape:window-x="26"
     inkscape:window-y="0"
     inkscape:window-maximized="0"
     inkscape:current-layer="svg48">
    <inkscape:grid
       type="xygrid"
       id="grid1913" />
  </sodipodi:namedview>
<path d="M 0.00 0.00 L 943.00 0.00 L 943.00 1111.00 L 0.00 1111.00 L 0.00 0.00 Z" fill="none" />
<path d="M 687.92 184.81 C 686.21 192.01 682.09 197.63 679.54 204.49 C 674.12 217.60 667.77 230.31 662.50 243.50 C 660.49 248.98 656.51 252.92 653.97 258.09 C 652.02 261.66 651.08 265.46 648.89 268.84 C 640.69 282.59 628.71 294.36 615.89 303.83 C 609.04 299.33 602.58 293.99 596.65 288.34 C 590.03 281.22 584.47 272.98 578.87 265.07 C 576.90 262.39 576.54 259.09 574.57 256.41 C 565.71 243.32 557.79 229.75 552.34 214.87 C 563.59 214.63 574.86 213.44 586.03 212.09 C 591.97 211.30 598.11 209.30 604.10 209.36 C 608.73 209.34 613.43 207.96 617.97 207.09 C 628.94 204.45 641.38 203.59 652.10 199.02 C 656.24 197.35 659.19 194.45 663.50 193.38 C 670.28 191.49 676.63 188.86 683.06 186.04 C 684.69 185.38 686.09 184.59 687.92 184.81 Z" fill="#FF5733" class="earsHalfBrown" />
<path d="M 158.35 189.82 C 162.39 191.64 166.23 193.90 170.25 195.76 C 174.05 197.38 178.16 197.03 181.93 198.05 C 183.70 199.11 185.12 200.86 186.58 202.31 C 188.03 201.43 188.96 200.47 190.74 201.12 C 197.28 203.11 204.02 204.18 210.49 206.35 C 216.26 208.31 222.27 209.24 228.10 211.03 C 235.95 213.37 244.12 213.77 251.99 216.02 C 257.83 217.04 264.16 215.47 270.07 216.85 C 277.84 218.76 285.22 217.01 292.87 217.84 C 287.46 221.93 284.40 228.28 278.65 231.67 C 270.17 242.49 259.93 250.80 252.93 262.92 C 247.77 269.14 242.00 274.57 238.00 281.72 L 236.07 280.46 C 235.14 281.67 234.20 282.87 233.28 284.09 C 234.23 286.42 232.15 287.25 230.98 288.97 C 228.86 291.17 228.69 293.84 227.57 296.56 C 226.60 297.01 225.71 296.86 224.89 296.12 C 219.37 292.25 214.23 288.04 208.56 284.40 C 205.15 282.28 203.02 278.08 200.41 274.98 C 190.30 262.48 180.56 250.25 173.04 235.95 C 169.89 231.06 168.53 225.66 166.84 220.18 C 163.56 211.78 160.30 203.29 157.57 194.69 C 156.90 192.88 157.65 191.47 158.35 189.82 Z" fill="#FF5733" class="earsHalfBrown" />
</svg>