<?xml version="1.0" encoding="UTF-8" standalone="no"?>
<!DOCTYPE svg PUBLIC "-//W3C//DTD SVG 1.1//EN" "http://www.w3.org/Graphics/SVG/1.1/DTD/svg11.dtd">
<svg xmlns="http://www.w3.org/2000/svg" version="1.1" viewBox="0 0 943 1111" width="943.0pt" height="1111.0pt">
<path d="M 0.00 0.00 L 943.00 0.00 L 943.00 1111.00 L 0.00 1111.00 L 0.00 0.00 Z" fill="none" />
<path d="M 316.34 260.50 C 328.75 261.28 341.26 266.87 351.86 273.13 C 370.50 284.09 386.16 299.55 396.08 318.86 C 397.59 321.51 397.70 324.19 397.67 327.16 C 396.74 327.65 395.80 328.15 394.86 328.64 C 376.59 313.60 354.81 303.33 331.79 298.00 C 321.32 295.61 310.66 294.85 300.15 292.88 C 307.41 292.33 314.55 293.24 321.80 293.31 C 315.21 290.83 308.61 288.75 301.60 287.84 C 307.87 285.15 314.30 285.23 320.99 284.96 C 317.82 283.25 314.64 281.55 311.37 280.03 C 311.45 279.54 311.53 279.05 311.62 278.57 C 319.05 279.54 326.44 280.73 333.86 281.79 C 329.75 276.94 324.50 273.19 320.63 268.17 C 324.55 268.50 328.39 269.25 332.26 269.97 C 326.92 266.86 321.77 263.46 316.34 260.50 Z" fill="#00ffff" />
<path d="M 525.30 261.13 C 522.86 267.87 516.92 270.63 512.08 275.83 C 516.19 274.24 520.22 272.99 524.57 272.32 C 524.51 273.21 524.45 274.09 524.38 274.98 C 519.85 277.29 516.03 280.34 512.23 283.71 C 520.38 282.45 528.45 281.67 536.67 282.59 C 536.70 283.44 536.73 284.29 536.75 285.14 C 532.03 286.65 527.29 288.00 522.48 289.23 C 527.67 290.36 532.21 289.97 536.49 293.30 C 530.53 293.71 524.85 292.59 518.93 293.65 C 500.71 296.38 481.91 302.01 466.44 312.26 C 459.72 316.40 453.70 321.53 448.64 327.60 C 446.92 329.71 444.87 331.45 442.75 333.15 C 440.58 329.71 442.16 325.43 442.86 321.75 C 445.53 312.60 450.68 304.09 457.05 297.05 C 469.57 284.13 485.39 274.91 501.84 267.92 C 509.26 264.84 517.25 261.87 525.30 261.13 Z" fill="#00ffff" />
<path d="M 556.24 357.60 L 556.87 357.20 C 559.71 357.27 562.36 357.67 564.88 359.05 C 573.61 363.56 580.82 370.46 587.15 377.87 C 594.55 385.94 601.21 394.59 607.45 403.58 C 616.89 418.12 624.26 433.97 628.82 450.72 C 630.89 458.14 633.42 466.78 632.29 474.49 C 631.50 479.13 627.92 480.90 624.52 483.53 C 618.43 487.80 612.07 492.22 605.14 494.98 C 600.29 496.77 594.18 498.07 589.45 495.32 C 585.77 492.97 584.23 488.00 583.45 483.94 C 581.64 473.65 581.49 463.04 580.10 452.68 C 578.51 441.74 575.66 431.30 572.55 420.71 C 568.10 405.54 563.79 390.28 559.03 375.23 C 557.79 371.11 556.37 366.98 555.58 362.74 C 555.17 360.92 555.56 359.29 556.24 357.60 Z" fill="#00ffff" />
<path d="M 281.18 359.42 C 284.49 363.70 282.44 370.23 281.26 374.93 C 272.19 405.70 262.85 435.80 259.67 467.97 C 259.18 472.78 259.59 477.65 259.06 482.44 C 258.55 486.15 256.02 490.28 252.68 492.05 C 247.24 493.67 241.19 492.59 236.00 490.53 C 228.98 487.86 221.74 484.73 215.62 480.34 C 213.28 478.58 210.58 476.31 209.44 473.55 C 208.91 470.56 209.98 467.17 210.59 464.25 C 218.60 433.18 231.98 402.62 253.44 378.43 C 259.60 371.92 266.47 365.13 274.54 361.08 C 276.64 359.99 278.86 359.69 281.18 359.42 Z" fill="#00ffff" />
<path d="M 430.53 422.45 C 447.02 430.50 457.23 448.28 473.53 455.47 C 483.51 459.84 494.43 460.37 505.30 463.50 C 513.91 465.64 521.82 469.54 527.04 476.96 C 530.55 482.30 532.84 489.26 530.92 495.60 C 527.12 508.27 518.98 518.62 510.42 528.45 C 506.17 533.33 501.09 536.99 496.36 541.35 C 488.48 548.53 478.60 553.75 468.80 557.79 C 448.43 566.00 425.85 569.92 403.99 566.61 C 384.87 564.01 366.72 555.80 350.70 545.26 C 341.50 539.18 332.82 532.83 325.29 524.71 C 316.93 515.89 310.90 505.07 309.74 492.81 C 309.09 487.45 310.84 482.67 312.97 477.86 C 315.88 471.59 321.12 466.55 328.00 465.05 C 341.79 461.94 356.97 462.74 370.39 456.38 C 378.41 452.67 383.62 446.78 389.98 440.97 C 397.80 434.05 406.61 427.52 416.15 423.17 C 420.71 421.06 425.83 420.35 430.53 422.45 Z" fill="#00ffff" />
</svg>

