<?xml version="1.0" encoding="UTF-8" standalone="no"?>
<!DOCTYPE svg PUBLIC "-//W3C//DTD SVG 1.1//EN" "http://www.w3.org/Graphics/SVG/1.1/DTD/svg11.dtd">
<svg xmlns="http://www.w3.org/2000/svg" version="1.1" viewBox="0 0 943 1111" width="943.0pt" height="1111.0pt">
<path d="M 0.00 0.00 L 943.00 0.00 L 943.00 1111.00 L 0.00 1111.00 L 0.00 0.00 Z" fill="none" />
<path d="M 421.86 122.86 C 416.56 128.81 412.70 135.64 408.05 142.06 C 405.95 145.34 404.81 148.98 404.12 152.79 C 408.68 150.66 410.29 145.90 414.78 143.74 C 419.03 141.49 422.59 138.17 426.83 135.96 C 431.49 134.08 436.43 132.88 441.21 131.30 C 447.55 129.23 453.41 129.95 459.99 129.34 C 456.72 132.01 453.99 135.08 451.39 138.40 C 446.91 143.64 441.65 150.50 441.07 157.58 C 444.07 157.64 447.07 157.68 450.07 157.68 C 455.02 157.68 460.04 158.92 465.01 159.31 C 469.13 159.62 473.13 159.97 477.16 160.97 C 485.31 163.15 493.37 165.34 501.01 168.97 C 510.61 173.46 520.84 177.47 529.65 183.34 C 536.03 187.46 542.73 190.99 549.29 194.78 C 556.76 200.21 564.21 205.66 571.15 211.78 C 575.37 215.25 578.84 219.46 583.00 222.99 C 588.57 227.45 592.76 234.01 597.47 239.50 C 601.15 244.15 605.64 248.42 608.54 253.50 C 615.61 265.41 622.70 277.30 629.77 289.21 C 633.57 295.39 635.30 302.07 638.44 308.58 C 642.13 315.95 643.21 324.70 645.52 332.80 C 648.32 344.15 652.75 354.90 655.73 366.18 C 658.92 373.84 660.90 381.78 661.62 390.05 C 662.29 394.37 663.19 398.59 663.24 403.00 C 663.15 408.41 665.84 413.64 669.93 417.10 C 678.11 424.14 685.99 431.01 695.13 436.84 C 701.89 440.98 708.39 445.32 715.90 448.06 C 725.45 453.05 734.52 458.86 744.37 463.32 C 741.56 464.35 739.07 465.68 735.98 465.23 C 724.00 463.69 712.09 461.07 700.21 458.89 C 693.75 457.75 687.64 455.75 681.26 454.20 C 681.03 455.20 680.83 456.20 680.66 457.21 C 681.91 458.90 683.90 460.13 685.50 461.48 C 691.70 466.32 696.04 472.82 701.89 478.12 C 706.98 483.43 713.05 487.59 718.17 492.84 C 723.60 498.62 729.28 504.15 734.83 509.81 C 729.93 508.14 724.94 506.73 720.04 505.05 C 709.44 501.04 699.02 496.54 688.38 492.62 C 683.16 490.53 678.24 488.13 672.60 487.34 C 672.55 488.26 672.51 489.18 672.47 490.10 C 678.50 492.29 682.52 496.87 687.97 499.99 C 693.38 503.11 696.74 507.57 700.95 512.03 C 706.30 517.82 711.26 523.95 716.51 529.83 C 713.47 528.14 710.54 526.89 707.01 526.65 C 696.59 525.00 686.14 526.23 675.76 524.36 C 669.05 523.19 662.72 524.32 656.00 524.24 C 652.68 524.28 649.31 524.11 646.01 524.45 C 642.77 524.94 639.59 526.20 636.69 527.69 C 631.91 530.13 626.69 531.46 621.83 533.76 C 611.40 539.08 599.89 542.77 589.82 548.81 C 579.28 554.31 568.44 559.11 557.53 563.81 C 557.27 564.89 557.01 565.96 556.75 567.03 C 543.77 573.18 530.72 581.22 517.03 585.15 C 507.06 588.21 497.18 591.72 487.06 594.24 C 473.72 596.97 460.31 599.47 446.81 601.26 C 435.14 602.29 422.75 604.05 411.10 603.11 C 403.74 602.89 396.36 603.38 389.00 603.39 C 378.83 603.29 368.32 601.10 358.42 598.85 C 348.64 596.28 339.30 596.25 329.91 592.10 C 318.92 587.28 308.01 582.19 297.39 576.60 C 280.47 566.83 262.99 557.93 246.40 547.60 C 233.20 539.62 219.31 532.35 204.68 527.39 C 202.43 526.74 199.89 526.90 197.53 526.53 C 192.31 525.70 187.21 523.47 181.98 522.84 C 179.19 523.04 176.97 524.97 174.02 524.81 C 160.88 524.96 148.09 524.29 134.98 525.72 C 132.61 525.94 131.42 527.65 129.80 529.14 C 128.46 529.38 127.12 529.60 125.78 529.82 C 128.41 526.09 130.92 522.39 134.03 519.03 C 143.68 509.02 150.57 497.85 161.67 489.00 C 161.20 488.48 160.73 487.96 160.27 487.43 C 157.93 488.58 155.56 489.58 153.03 490.24 C 148.16 491.50 144.27 494.07 139.54 495.83 C 132.00 498.68 124.02 500.17 116.50 503.42 C 113.45 504.78 110.37 505.98 107.16 506.88 C 118.75 497.22 130.56 487.94 141.42 477.41 C 145.30 473.58 149.77 471.24 153.03 466.77 C 156.17 465.10 160.63 464.67 160.79 460.31 C 158.86 459.45 156.92 460.31 154.92 460.62 C 147.22 462.39 139.79 462.01 132.04 463.26 C 124.05 464.49 115.99 465.09 107.96 466.07 C 105.20 466.54 102.26 465.01 99.70 464.05 C 112.94 457.07 126.53 451.35 139.15 443.19 C 144.43 439.69 150.00 436.69 155.36 433.35 C 159.28 430.97 162.22 427.56 165.96 424.94 C 168.52 422.96 171.67 420.85 173.38 418.06 C 173.90 416.45 173.25 414.50 173.06 412.84 C 173.94 408.14 174.38 403.52 175.93 398.97 C 178.30 391.54 179.01 383.92 180.73 376.20 C 182.51 368.15 184.27 360.07 186.30 352.08 C 187.76 346.22 190.32 340.96 191.29 334.99 C 192.24 329.67 194.12 324.90 195.83 319.81 C 199.78 308.45 203.74 296.28 209.99 285.99 C 215.41 276.71 220.83 266.89 227.44 258.45 C 228.96 256.50 230.03 254.37 230.90 252.06 C 232.38 248.04 235.74 245.50 238.01 242.00 C 239.27 239.81 239.76 237.43 241.34 235.38 C 247.63 227.35 254.71 220.11 261.91 212.90 C 265.33 209.63 269.62 207.25 273.37 204.34 C 285.27 195.21 298.52 186.78 312.71 181.72 C 327.87 175.44 343.34 170.08 359.33 166.30 C 363.44 162.64 363.97 157.91 366.36 153.24 C 369.10 147.52 372.22 141.90 375.54 136.50 C 378.91 130.90 385.87 127.29 391.22 123.72 C 389.71 129.36 386.57 134.26 384.95 139.86 C 384.06 142.92 383.22 145.93 381.84 148.82 C 380.19 152.31 380.59 155.91 381.82 159.46 C 386.32 154.76 386.97 148.44 391.88 143.92 C 396.49 139.69 400.46 134.42 405.56 130.81 C 410.98 128.15 416.35 125.33 421.86 122.86 Z" fill="#944306" class="headCol" />
</svg>