<?xml version="1.0" encoding="UTF-8" standalone="no"?>
<!DOCTYPE svg PUBLIC "-//W3C//DTD SVG 1.1//EN" "http://www.w3.org/Graphics/SVG/1.1/DTD/svg11.dtd">
<svg xmlns="http://www.w3.org/2000/svg" version="1.1" viewBox="0 0 943 1111" width="100%" height="100%">
<path d="M 0.00 0.00 L 943.00 0.00 L 943.00 1111.00 L 0.00 1111.00 L 0.00 0.00 Z" fill="#0000" />
<path  d="M 300.97 855.61 C 312.99 855.34 324.99 856.06 337.01 855.72 C 342.83 855.57 348.19 857.19 354.04 857.51 C 359.20 857.65 364.04 860.23 368.93 862.09 C 372.27 863.24 373.89 866.55 375.72 869.31 C 379.40 875.58 382.83 882.14 385.19 889.03 C 385.78 892.26 385.07 895.75 385.32 899.04 C 385.39 902.02 386.51 904.95 386.02 907.80 C 385.29 912.73 383.98 917.59 382.32 922.29 C 380.85 926.80 377.28 930.65 374.15 934.13 C 370.48 938.28 365.74 940.95 361.86 944.86 C 360.11 946.60 358.39 948.00 355.97 948.69 C 344.27 952.59 333.49 958.52 322.01 962.86 C 313.69 965.21 304.59 965.47 296.01 966.27 C 282.68 966.64 269.34 966.77 256.01 967.01 C 250.67 967.04 244.90 966.36 240.01 964.10 C 232.12 960.63 224.49 956.35 217.13 951.87 C 211.99 949.21 210.23 943.24 205.43 939.84 C 205.45 935.46 205.27 931.23 204.83 926.88 C 205.14 924.36 207.72 918.45 209.50 916.56 C 224.51 902.92 237.65 888.22 254.24 876.27 C 257.46 874.22 261.37 873.48 264.74 871.62 C 273.09 867.19 281.70 863.32 290.20 859.19 C 293.64 857.65 297.14 855.60 300.97 855.61 Z" fill="#6a360e" id="path123" class="leftFoot" />
</svg>