<?xml version="1.0" encoding="UTF-8" standalone="no"?>
<!DOCTYPE svg PUBLIC "-//W3C//DTD SVG 1.1//EN" "http://www.w3.org/Graphics/SVG/1.1/DTD/svg11.dtd">
<svg xmlns="http://www.w3.org/2000/svg" version="1.1" viewBox="0 0 943 1111" width="943.0pt" height="1111.0pt">
<path d="M 0.00 0.00 L 943.00 0.00 L 943.00 1111.00 L 0.00 1111.00 L 0.00 0.00 Z" fill="none" />
<path d="M 345.22 558.82 C 347.79 559.76 349.36 561.83 351.35 563.65 C 355.83 568.05 361.51 570.72 364.58 576.43 C 367.45 582.00 370.47 587.91 372.00 594.00 C 373.48 599.32 373.53 604.51 373.66 610.00 C 373.65 615.11 373.93 619.93 372.72 624.95 C 371.74 629.20 371.20 633.69 369.71 637.79 C 367.73 640.64 364.76 642.85 362.43 645.44 C 358.23 649.57 354.53 654.56 349.73 657.77 C 344.99 661.06 340.28 664.06 335.85 667.82 C 331.98 671.05 328.73 674.71 324.50 677.52 C 313.04 685.29 299.89 690.96 287.84 697.85 C 281.34 701.32 275.07 704.95 268.81 708.83 C 260.55 713.88 251.81 717.90 243.20 722.28 C 241.15 723.31 239.04 724.16 236.87 724.89 C 231.56 726.60 227.35 730.05 222.14 732.09 C 217.84 733.77 213.59 735.62 209.28 737.28 C 205.40 738.80 201.21 738.59 197.02 739.08 C 192.83 739.48 189.24 740.77 185.02 740.70 C 179.67 740.65 174.17 739.41 168.91 738.40 C 166.82 737.89 164.51 737.65 162.96 736.00 C 159.58 732.72 156.53 729.08 153.45 725.51 C 152.16 723.90 150.59 722.13 149.96 720.14 C 149.15 714.05 150.02 707.86 152.39 702.20 C 156.14 693.98 161.21 686.74 166.43 679.43 C 169.63 673.65 174.62 669.82 178.73 664.79 C 185.46 656.78 193.10 649.82 200.92 642.91 C 209.83 634.47 219.13 626.46 227.96 617.95 C 231.92 614.23 236.54 611.12 240.86 607.82 C 247.79 602.76 254.67 597.28 262.05 593.07 C 263.69 592.09 265.49 591.18 266.95 589.93 C 269.00 587.88 270.38 585.47 272.95 583.93 C 279.38 579.80 285.29 574.50 292.13 571.12 C 304.11 566.19 316.83 562.60 328.93 558.14 C 334.19 556.60 340.13 556.65 345.22 558.82 Z" fill="#6a360e" class="leftHand"/>
</svg>