<?xml version="1.0" encoding="UTF-8" standalone="no"?>
<!DOCTYPE svg PUBLIC "-//W3C//DTD SVG 1.1//EN" "http://www.w3.org/Graphics/SVG/1.1/DTD/svg11.dtd">
<svg xmlns="http://www.w3.org/2000/svg" version="1.1" viewBox="0 0 943 1111" width="100%" height="100%">
<path d="M 0.00 0.00 L 943.00 0.00 L 943.00 1111.00 L 0.00 1111.00 L 0.00 0.00 Z" fill="none" />
<path d="M 192.49 681.65 C 195.72 680.35 199.00 680.84 202.26 681.73 C 208.70 683.59 214.21 688.77 217.47 694.51 C 221.13 700.86 219.91 708.85 215.43 714.45 C 211.53 719.21 204.88 721.25 199.07 718.96 C 189.35 714.99 181.64 704.29 183.83 693.53 C 184.96 688.98 187.94 683.50 192.49 681.65 Z" fill="#ffc860" class="leftPaw" />
<path d="M 175.45 698.92 C 176.21 703.53 171.26 707.56 167.00 707.59 C 164.84 707.73 163.19 706.22 161.40 705.23 C 161.73 701.43 161.16 698.07 164.24 695.25 C 167.92 691.56 174.81 693.69 175.45 698.92 Z" fill="#ffc860" class="leftPaw"/>
<path d="M 173.31 711.32 C 177.33 709.10 183.60 712.33 183.82 717.04 C 184.62 721.96 178.59 726.20 174.12 724.86 C 168.95 722.25 167.84 714.37 173.31 711.32 Z" fill="#ffc860" class="leftPaw"/>
<path d="M 195.30 724.66 C 198.94 729.34 194.56 736.28 189.05 736.28 C 187.53 736.13 186.07 735.80 184.57 735.48 C 183.59 731.72 183.72 729.24 186.13 726.11 C 188.18 723.09 192.60 721.48 195.30 724.66 Z" fill="#ffc860" class="leftPaw"/>
</svg>