<?xml version="1.0" encoding="UTF-8" standalone="no"?>
<!DOCTYPE svg PUBLIC "-//W3C//DTD SVG 1.1//EN" "http://www.w3.org/Graphics/SVG/1.1/DTD/svg11.dtd">
<svg xmlns="http://www.w3.org/2000/svg" version="1.1" viewBox="0 0 943 1111" width="100%" height="100%">
<path d="M 0.00 0.00 L 943.00 0.00 L 943.00 1111.00 L 0.00 1111.00 L 0.00 0.00 Z" fill="none" />
<path d="M 425.53 119.93 C 422.50 124.37 418.35 127.85 415.31 132.32 C 411.30 138.14 407.93 144.42 404.99 150.85 C 410.21 146.22 415.23 141.67 421.45 138.35 C 429.22 133.97 437.45 131.86 446.10 130.02 C 451.75 128.88 457.45 128.57 463.20 128.54 C 459.37 132.11 454.90 135.37 451.46 139.46 C 447.27 144.55 444.29 150.38 442.14 156.59 C 451.07 156.33 460.23 158.44 469.06 159.77 C 489.27 163.42 508.99 171.34 527.09 180.94 C 528.45 181.51 530.31 182.90 531.77 182.10 C 552.92 172.91 577.21 171.35 600.00 171.25 C 618.94 170.95 638.06 171.95 656.94 170.39 C 663.49 169.76 670.02 168.36 676.52 167.32 C 686.75 165.49 696.53 162.76 707.00 161.62 C 709.23 161.58 712.52 161.07 714.29 162.72 C 716.67 165.99 716.66 171.09 716.14 174.93 C 714.61 184.59 711.52 194.39 708.74 203.75 C 703.14 222.64 695.65 240.93 686.35 258.30 C 679.52 271.84 671.80 284.85 663.58 297.58 C 657.57 307.14 652.11 316.50 644.82 325.22 C 648.91 337.68 653.22 350.02 656.36 362.78 C 659.86 376.97 663.66 391.49 665.05 406.06 C 665.45 408.58 665.33 410.84 667.14 412.85 C 674.29 421.17 683.82 427.96 692.83 434.12 C 709.01 444.67 725.86 454.65 743.51 462.53 C 745.49 463.54 745.84 463.78 745.86 466.13 C 742.42 467.05 738.30 465.77 734.80 465.33 C 717.21 462.16 699.55 459.17 682.11 455.24 C 688.17 462.88 695.60 469.62 702.48 476.52 C 711.82 485.86 721.62 494.71 731.00 504.01 C 733.65 506.80 736.74 508.22 737.68 512.29 C 727.36 507.51 716.53 504.19 706.01 499.89 C 695.95 496.06 685.89 492.07 675.63 488.82 C 679.33 492.59 683.82 495.66 687.93 499.07 C 697.11 506.38 705.97 514.58 713.05 523.98 C 714.69 526.13 716.79 527.57 718.66 529.52 C 715.01 529.67 711.57 528.87 707.99 528.33 C 693.10 525.88 678.11 524.36 663.00 524.44 C 651.92 524.08 640.47 525.84 630.27 530.28 C 622.38 533.61 614.62 537.26 606.83 540.82 C 590.08 548.28 574.05 558.76 557.83 567.41 C 563.34 570.90 569.16 573.85 574.69 577.31 C 588.60 585.68 601.41 595.66 613.32 606.68 C 629.39 621.47 644.71 637.30 658.23 654.46 C 672.36 635.12 684.07 614.19 697.72 594.72 C 704.37 585.19 711.89 576.33 720.56 568.58 C 725.65 564.24 731.25 560.48 736.96 557.01 C 744.25 552.61 752.00 549.75 760.07 547.12 C 783.49 540.05 810.34 548.33 826.50 566.49 C 835.98 576.99 844.57 590.70 846.22 604.99 C 847.01 616.56 846.46 628.09 843.32 639.30 C 840.00 651.14 835.17 662.60 829.57 673.53 C 821.70 689.22 812.45 704.72 801.31 718.31 C 793.83 727.13 785.86 735.53 777.21 743.21 C 767.11 752.40 757.14 761.26 745.50 768.49 C 736.88 774.30 728.64 780.51 719.44 785.43 C 701.04 796.41 681.32 805.02 660.67 810.76 C 638.83 816.60 616.56 819.44 594.01 820.56 C 589.90 820.83 585.43 820.32 581.44 821.38 C 579.78 823.07 578.58 825.27 577.15 827.16 C 574.95 830.30 572.08 832.69 569.67 835.65 C 561.74 845.88 549.71 853.64 539.10 860.89 C 552.75 864.94 565.90 870.07 578.70 876.31 C 593.42 883.49 607.72 891.05 620.27 901.72 C 627.26 907.69 633.95 914.44 638.57 922.44 C 640.26 925.41 641.64 928.51 641.52 932.00 C 641.39 938.10 637.82 943.45 633.41 947.40 C 625.71 954.14 615.87 958.48 606.07 961.15 C 594.25 964.49 582.20 965.75 569.99 966.59 C 557.67 967.07 545.16 967.19 532.91 965.62 C 518.28 964.19 504.05 960.71 490.75 954.38 C 482.84 950.54 475.65 945.77 470.39 938.59 C 464.86 931.41 462.43 922.51 461.12 913.67 C 459.68 904.35 460.47 895.19 462.99 886.14 C 455.61 886.51 448.32 887.61 440.93 887.84 C 421.93 889.30 403.29 887.99 384.44 885.59 C 388.66 901.48 386.21 918.97 376.29 932.31 C 367.73 943.77 355.09 950.44 342.41 956.35 C 327.04 963.92 309.35 967.28 292.33 967.81 C 283.59 968.72 274.72 968.65 265.95 968.29 C 252.91 967.02 240.35 965.51 228.47 959.57 C 219.48 955.08 210.52 948.36 205.49 939.48 C 202.74 934.78 202.50 928.88 204.94 924.00 C 207.92 917.79 212.59 912.25 217.09 907.08 C 223.80 899.89 230.81 892.62 238.54 886.53 C 246.57 880.10 255.04 874.13 263.94 868.94 C 273.11 863.58 282.99 860.09 293.14 857.07 C 284.44 851.95 276.12 847.38 269.58 839.43 C 258.33 826.44 253.68 807.73 251.79 791.03 C 251.03 781.06 250.21 771.34 251.13 761.33 C 251.69 746.11 253.88 731.09 255.90 716.06 C 242.79 722.78 229.60 729.27 216.01 734.97 C 205.47 739.22 194.32 741.16 183.00 741.62 C 176.62 741.87 169.96 740.65 164.24 737.76 C 157.55 734.04 152.25 727.46 149.85 720.21 C 147.49 713.33 149.07 705.52 152.05 699.08 C 156.83 689.68 164.55 681.34 171.25 673.24 C 181.38 660.81 192.42 649.10 204.12 638.13 C 230.56 613.84 259.20 591.87 289.72 572.94 C 284.60 569.80 279.33 566.90 274.19 563.80 C 253.22 551.38 234.06 538.79 211.01 530.15 C 199.82 526.24 187.83 524.38 175.99 524.36 C 162.96 523.96 149.95 524.93 137.14 527.36 C 132.87 528.22 128.97 530.02 124.61 530.52 C 128.80 522.94 135.18 516.37 140.86 509.88 C 147.27 502.49 153.99 495.34 160.30 487.88 C 145.27 493.45 130.64 500.14 115.53 505.51 C 112.68 506.48 109.97 507.48 106.91 507.29 C 107.72 505.65 108.44 504.13 110.00 503.07 C 127.65 490.11 144.51 475.84 159.77 460.13 C 144.63 461.90 129.55 464.59 114.32 465.76 C 109.42 466.13 103.95 467.29 99.12 466.18 C 98.96 463.47 100.86 463.02 102.83 461.94 C 118.03 455.08 132.52 446.61 146.45 437.45 C 154.10 432.03 162.59 426.88 169.01 420.00 C 172.05 416.90 172.07 413.19 172.96 409.18 C 178.81 379.39 186.09 349.77 195.59 320.93 C 178.24 304.68 165.66 284.65 153.81 264.22 C 145.60 249.35 137.85 234.09 131.70 218.25 C 125.93 202.83 121.49 187.57 120.75 171.02 C 120.91 168.63 121.11 165.65 122.55 163.66 C 131.62 160.08 142.16 163.82 151.16 165.83 C 177.43 172.18 204.14 171.87 231.00 170.68 C 246.10 170.29 261.02 170.00 276.13 170.52 C 288.91 171.09 301.32 173.72 312.05 180.99 C 328.18 175.05 343.48 169.07 360.37 165.71 C 363.13 157.16 366.48 148.99 371.53 141.51 C 377.21 133.48 383.88 126.24 392.33 121.06 C 390.32 127.35 387.08 132.93 385.42 139.39 C 384.03 144.91 382.86 150.55 382.15 156.19 C 388.52 146.70 394.57 137.84 403.83 130.83 C 410.56 125.74 417.85 123.75 425.53 119.93 Z" fill="none" stroke-width="4px" stroke="black" />
<path d="M 414.73 127.60 C 407.16 139.04 400.61 150.12 398.22 163.88 C 401.41 161.28 402.97 157.72 405.75 154.76 C 413.89 146.19 423.58 139.37 435.02 136.04 C 441.93 134.10 448.90 131.98 456.01 130.97 C 447.80 137.95 440.45 148.21 439.36 159.17 C 448.08 159.08 456.93 161.11 465.65 162.45 C 479.21 164.48 492.34 168.91 505.04 174.00 C 519.08 180.00 532.79 187.02 545.54 195.44 C 554.17 201.35 562.65 207.58 570.51 214.49 C 591.87 232.86 609.00 256.99 622.23 281.73 C 639.66 315.41 651.69 352.38 659.29 389.47 C 661.51 399.80 662.27 410.25 663.43 420.72 C 664.29 420.72 665.16 420.72 666.02 420.72 C 666.20 419.25 666.35 417.78 666.51 416.31 C 672.51 423.34 679.59 428.62 687.11 433.89 C 702.20 444.40 718.17 453.41 734.47 461.87 C 728.61 461.49 722.72 460.04 716.88 459.14 C 706.16 457.47 695.51 455.50 684.77 453.99 C 683.02 453.59 681.01 453.71 679.84 452.16 C 677.74 449.81 675.96 447.44 673.05 446.02 C 673.62 448.37 674.45 450.21 675.85 452.18 C 682.68 461.83 691.22 470.15 699.72 478.28 C 708.50 486.85 717.57 495.17 726.09 503.99 C 706.80 497.49 687.14 488.15 667.19 483.44 C 667.26 484.47 667.34 485.51 667.41 486.54 C 673.34 490.53 678.42 495.51 684.09 499.90 C 693.92 507.58 702.97 516.16 711.00 525.72 C 690.27 521.98 669.32 520.60 648.28 521.54 C 640.00 522.55 631.58 524.96 624.40 529.28 C 612.98 534.82 600.98 539.61 589.81 545.81 C 583.20 549.49 576.62 553.20 570.10 557.02 C 555.62 565.42 540.63 572.87 525.10 579.13 C 498.82 589.61 471.03 595.43 442.99 598.65 C 431.37 600.23 419.70 600.65 408.00 601.11 C 388.96 600.90 370.20 600.02 351.66 595.27 C 319.99 587.78 293.40 571.62 265.80 555.16 C 248.73 544.79 230.68 534.12 211.82 527.14 C 194.04 520.81 176.29 520.74 157.69 521.52 C 149.07 522.24 140.53 523.48 132.03 525.06 C 139.01 516.13 146.93 507.93 154.36 499.38 C 158.12 494.79 162.57 490.85 166.13 486.11 C 167.63 484.14 170.14 482.90 172.10 481.40 C 164.41 483.48 156.85 486.62 149.36 489.39 C 138.51 493.38 127.82 497.80 116.99 501.84 C 133.45 489.03 149.27 475.81 163.47 460.48 C 166.16 457.31 168.68 454.28 170.22 450.37 C 165.79 451.38 164.69 454.94 161.47 457.56 C 158.58 458.71 155.05 458.40 151.99 458.76 C 136.99 460.19 122.01 462.20 107.00 463.51 C 124.81 454.79 142.04 444.76 158.04 433.04 C 162.29 430.06 166.27 426.89 169.99 423.27 C 169.25 428.23 167.53 432.30 168.58 437.35 C 169.84 435.46 170.90 433.55 171.44 431.33 C 173.71 422.90 174.96 414.21 176.83 405.66 C 180.97 384.83 185.96 364.18 191.79 343.76 C 197.35 324.61 203.28 306.11 212.18 288.20 C 220.73 270.05 231.90 253.01 244.15 237.15 C 258.60 218.41 277.12 202.15 298.20 191.28 C 305.55 187.38 313.16 183.80 321.00 180.96 C 334.53 176.16 347.67 171.14 361.92 168.64 C 365.20 161.83 367.32 154.72 371.13 148.15 C 374.71 141.57 379.55 135.92 384.97 130.81 C 381.28 141.77 379.23 153.20 379.16 164.78 C 379.92 164.69 380.69 164.59 381.45 164.50 C 385.34 155.81 390.97 148.31 397.14 141.13 C 402.04 135.55 408.11 130.95 414.73 127.60 Z" fill="none" stroke-width="4px" stroke="black" />
<path d="M 147.85 168.31 C 165.24 172.62 183.09 174.50 201.00 174.49 C 227.61 174.81 253.19 172.05 280.03 173.99 C 290.15 174.81 299.86 176.94 308.42 182.65 C 300.48 186.64 292.69 190.38 285.16 195.16 C 276.74 200.50 268.86 206.76 261.52 213.49 C 260.56 214.22 259.36 215.61 258.06 215.32 C 242.45 213.81 227.09 210.87 211.89 207.02 C 187.43 200.96 162.32 192.40 140.67 179.33 C 139.28 178.44 137.83 178.51 136.25 178.46 C 137.13 179.75 137.79 181.04 139.13 181.92 C 143.78 185.12 149.03 187.49 153.85 190.22 C 155.24 190.89 155.58 192.59 156.13 193.90 C 161.97 212.04 168.98 230.09 178.22 246.79 C 186.61 261.31 197.03 274.90 209.51 286.15 C 204.78 296.39 200.54 306.63 196.70 317.24 C 189.92 311.43 184.27 304.18 178.91 297.09 C 163.76 276.53 151.09 253.70 140.49 230.49 C 134.71 217.85 130.03 204.63 126.84 191.10 C 125.18 183.06 123.69 174.46 124.45 166.25 C 132.49 163.85 140.01 166.53 147.85 168.31 Z" fill="none" stroke-width="4px" stroke="black" />
<path d="M 711.00 164.53 C 713.26 165.64 713.34 169.81 713.25 171.98 C 712.18 181.29 709.24 190.73 706.59 199.70 C 701.99 215.87 695.97 231.66 688.69 246.81 C 683.66 256.64 678.67 266.54 673.08 276.07 C 667.19 286.36 660.53 296.23 654.35 306.36 C 650.84 311.71 647.66 317.08 643.39 321.63 C 639.62 311.95 635.80 302.30 631.38 292.89 C 639.39 283.82 646.76 274.27 652.68 263.69 C 661.99 248.50 669.02 232.45 676.21 216.19 C 680.01 206.75 684.67 197.55 687.73 187.84 C 692.06 186.00 696.57 184.10 700.49 181.47 C 701.80 180.56 702.45 179.31 703.30 178.01 C 700.65 178.26 698.56 178.99 696.23 180.22 C 688.90 183.99 681.22 186.56 673.51 189.39 C 657.50 195.07 642.14 200.88 625.49 204.60 C 608.78 208.25 591.86 210.84 574.77 211.89 C 571.85 212.28 570.58 210.10 568.46 208.55 C 557.69 199.67 546.25 191.49 534.07 184.65 C 549.81 177.78 568.00 175.68 584.99 174.68 C 605.01 174.15 624.99 174.66 645.00 174.35 C 662.05 173.92 679.66 170.07 696.33 166.56 C 701.13 165.79 706.13 164.35 711.00 164.53 Z" fill="none" stroke-width="4px" stroke="black" />
<path d="M 683.95 189.40 C 676.42 208.07 668.38 226.57 659.62 244.71 C 651.14 260.80 642.35 276.22 629.89 289.63 C 619.16 267.78 606.09 247.30 589.94 229.04 C 585.51 224.17 580.70 219.72 576.16 214.98 C 590.31 214.25 604.43 212.23 618.32 209.49 C 640.49 205.41 662.74 196.91 683.95 189.40 Z" fill="none" stroke-width="4px" stroke="black" />
<path d="M 159.31 192.88 C 169.88 197.08 180.37 201.41 191.30 204.63 C 210.96 210.50 231.14 215.35 251.53 217.78 C 253.08 218.00 254.63 218.27 256.18 218.53 C 238.10 237.56 223.18 259.78 211.08 283.03 C 195.89 269.08 183.67 251.81 175.00 233.12 C 168.90 220.09 163.62 206.61 159.31 192.88 Z" fill="none" stroke-width="4px" stroke="black" />
<path d="M 430.39 454.65 C 440.40 460.05 445.20 472.04 444.70 482.99 C 444.56 487.43 441.81 492.39 436.91 492.59 C 431.84 492.72 426.81 492.14 421.74 492.55 C 421.85 496.97 420.56 501.39 422.75 505.26 C 427.19 514.64 437.99 519.41 448.02 518.69 C 456.84 518.43 464.05 512.84 470.92 507.93 C 475.30 504.93 478.79 500.97 483.00 497.79 C 481.51 501.26 479.39 504.06 476.66 506.66 C 468.67 514.29 460.50 520.89 449.15 522.38 C 447.46 525.94 446.00 529.28 443.00 531.99 C 439.88 534.77 435.93 536.71 432.02 538.11 C 424.25 540.79 415.96 541.20 408.44 537.49 C 402.34 534.32 396.76 529.52 393.31 523.51 C 385.55 522.99 378.17 520.88 372.00 516.00 C 366.83 511.86 361.83 506.04 360.55 499.37 C 365.79 503.95 369.14 509.95 375.09 513.92 C 385.47 521.53 400.65 522.35 410.68 513.69 C 417.17 508.32 417.86 500.56 418.63 492.72 C 413.20 492.43 407.48 492.26 402.23 490.79 C 399.19 489.74 395.73 488.42 394.98 484.90 C 393.96 480.32 395.85 474.94 397.72 470.76 C 401.14 463.50 407.02 455.78 414.71 452.78 C 420.03 451.81 425.61 451.80 430.39 454.65 Z" fill="none" stroke-width="4px" stroke="black" />
<path d="M 419.70 508.06 C 422.01 510.92 423.90 513.86 426.89 516.11 C 432.47 520.43 438.98 522.00 445.89 522.66 C 443.30 526.00 441.21 529.29 437.44 531.47 C 430.37 535.73 420.64 538.14 412.67 535.22 C 406.61 533.20 401.45 528.31 397.50 523.43 C 403.20 521.80 408.56 520.10 413.10 516.09 C 415.88 513.79 417.36 510.69 419.70 508.06 Z" fill="none" stroke-width="4px" stroke="black"/>
<path d="M 768.06 549.54 C 776.33 549.21 785.99 547.48 793.94 549.96 C 801.46 552.24 808.56 555.39 814.86 560.14 C 822.25 565.52 828.35 573.04 833.43 580.58 C 837.69 587.39 841.66 595.29 842.69 603.33 C 843.51 609.38 844.00 615.44 843.43 621.54 C 842.31 637.09 836.20 652.53 829.63 666.56 C 819.63 687.08 807.46 708.03 791.65 724.64 C 782.87 734.47 772.88 743.28 762.99 751.98 C 755.31 758.77 746.91 763.81 738.43 769.44 C 733.95 772.69 729.48 775.91 724.69 778.69 C 713.52 785.23 702.64 791.59 690.71 796.69 C 680.65 800.98 670.33 804.79 659.78 807.69 C 634.63 814.38 609.19 817.12 583.22 817.74 C 590.03 804.66 593.42 789.46 595.05 774.89 C 596.66 758.86 595.11 743.04 592.17 727.27 C 595.07 725.17 597.98 723.07 600.94 721.05 C 608.82 724.93 616.70 728.80 624.77 732.28 C 635.04 736.77 646.64 741.35 657.96 741.71 C 669.27 742.32 681.30 738.44 689.41 730.38 C 693.75 725.87 693.99 719.86 693.12 713.98 C 691.28 703.38 685.30 693.32 679.76 684.25 C 673.95 674.59 666.85 666.55 660.51 657.23 C 669.04 645.06 677.17 632.63 685.03 620.02 C 696.48 602.14 706.88 585.18 722.96 570.96 C 736.16 560.05 750.85 551.79 768.06 549.54 Z" fill="none" stroke-width="4px" stroke="black" />
<path d="M 554.05 569.43 C 571.86 578.25 588.66 589.27 603.71 602.28 C 615.76 612.92 627.48 623.81 638.13 635.88 C 646.52 644.59 654.15 653.96 661.30 663.70 C 666.71 671.11 672.39 678.00 677.12 685.89 C 682.38 694.53 688.23 704.21 690.01 714.28 C 690.74 719.01 690.85 724.55 687.17 728.16 C 681.79 733.76 673.98 737.07 666.39 738.26 C 655.88 739.67 646.06 737.31 636.29 733.65 C 620.70 727.62 606.19 720.23 591.36 712.63 C 589.83 711.72 588.34 711.15 587.88 709.25 C 581.10 684.50 570.13 660.56 557.99 638.01 C 547.59 618.37 535.98 600.11 519.77 584.71 C 531.44 580.03 542.78 574.99 554.05 569.43 Z" fill="none" stroke-width="4px" stroke="black" />
<path d="M 293.00 574.92 C 300.46 578.39 307.60 582.52 315.13 585.88 C 307.84 593.83 300.99 602.09 295.24 611.24 C 276.30 640.64 263.61 674.19 257.39 708.56 C 256.91 710.31 256.94 712.13 255.06 712.97 C 242.72 719.55 230.01 725.59 217.19 731.19 C 206.17 736.00 194.00 738.35 182.00 738.56 C 174.20 738.74 165.72 736.63 160.09 730.91 C 154.91 725.72 151.09 718.49 151.91 710.97 C 152.37 704.13 156.38 697.61 159.82 691.79 C 164.55 685.29 169.71 679.05 175.13 673.12 C 183.67 663.05 192.60 653.26 202.14 644.14 C 226.71 621.03 253.44 600.11 281.70 581.69 C 285.39 579.35 289.08 576.87 293.00 574.92 Z" fill="none" stroke-width="4px" stroke="black" />
<path d="M 516.56 586.35 C 519.44 588.38 521.82 591.22 524.23 593.78 C 535.95 606.38 545.45 621.36 553.53 636.50 C 563.61 654.76 572.63 673.79 579.63 693.44 C 583.84 705.16 586.83 717.43 589.28 729.63 C 593.08 748.97 593.88 768.57 589.86 787.95 C 587.03 801.77 582.88 814.78 574.00 825.99 C 568.42 832.38 563.02 839.19 556.47 844.47 C 550.52 849.29 544.29 853.76 537.81 857.84 C 536.04 858.88 534.72 859.98 532.55 859.34 C 521.56 856.82 510.24 855.47 498.96 855.46 C 489.54 856.07 480.42 860.01 473.80 866.80 C 469.43 871.38 466.78 876.73 464.33 882.49 C 459.15 883.27 453.91 883.73 448.70 884.27 C 435.68 884.92 423.06 886.03 410.01 884.78 C 401.11 884.57 392.34 883.35 383.52 882.29 C 380.72 874.72 377.50 867.15 371.14 861.84 C 365.78 857.48 357.77 856.17 351.04 856.13 C 342.04 855.51 333.07 854.21 324.04 853.73 C 318.03 853.58 312.00 854.32 306.01 854.78 C 302.62 854.98 298.30 856.79 295.34 854.67 C 287.24 850.06 279.60 845.70 273.10 838.90 C 265.89 831.42 262.02 821.78 258.98 812.01 C 255.88 801.36 254.50 790.11 254.12 779.03 C 253.18 770.91 254.32 763.07 254.53 754.95 C 256.78 727.66 260.63 701.13 268.88 674.94 C 275.76 653.71 285.02 632.91 297.10 614.11 C 303.17 604.39 310.26 595.56 318.19 587.30 C 342.16 597.61 367.87 603.51 394.01 603.80 C 405.34 604.95 416.37 603.71 427.69 603.35 C 456.32 600.82 484.79 596.35 512.10 587.14 C 513.47 586.80 515.16 586.00 516.56 586.35 Z" fill="none" stroke-width="4px" stroke="black" />
<path d="M 589.38 715.18 C 592.09 716.38 594.70 717.84 597.33 719.21 C 595.45 720.73 593.53 722.22 591.59 723.67 C 590.70 720.87 589.92 718.07 589.38 715.18 Z" fill="none" stroke-width="4px" stroke="black" />
<path d="M 318.01 857.14 C 320.35 856.97 322.68 856.78 325.02 857.01 C 337.61 857.92 350.25 859.20 362.69 861.33 C 368.38 862.43 371.95 866.41 374.89 871.11 C 378.69 877.19 380.97 884.29 382.41 891.28 C 384.62 904.50 382.26 918.38 374.42 929.42 C 366.74 940.85 352.78 948.01 340.61 953.67 C 328.29 959.70 315.07 962.67 301.51 964.16 C 288.09 965.01 275.50 966.38 261.99 964.76 C 251.10 963.56 240.76 962.01 230.78 957.22 C 222.14 953.09 213.54 946.76 208.45 938.53 C 205.79 934.19 205.52 929.37 207.85 924.82 C 211.37 917.92 216.92 911.80 222.12 906.11 C 234.29 892.92 248.43 882.04 263.74 872.73 C 280.09 863.17 298.99 857.27 318.01 857.14 Z" fill="none" stroke-width="4px" stroke="black" />
<path d="M 502.00 859.48 C 508.81 859.32 515.45 860.28 522.21 860.87 C 529.61 861.43 537.11 863.74 544.23 865.83 C 563.65 872.02 582.27 880.92 599.89 891.12 C 611.55 898.18 622.90 906.86 631.44 917.57 C 634.20 921.22 637.27 925.48 638.25 930.02 C 638.90 934.30 636.89 938.89 634.08 942.07 C 628.87 948.12 621.49 952.17 614.18 955.14 C 602.47 959.66 589.49 961.82 577.02 962.88 C 555.01 964.70 531.96 964.10 510.52 958.37 C 497.68 954.59 483.28 949.07 474.44 938.55 C 468.06 931.34 465.60 922.26 464.23 912.95 C 462.03 899.43 465.08 885.01 472.50 873.51 C 475.74 868.36 480.44 864.52 485.92 861.94 C 490.82 859.42 496.62 859.60 502.00 859.48 Z" fill="none" stroke-width="4px" stroke="black" />
</svg>

