<?xml version="1.0" encoding="UTF-8" standalone="no"?>
<!DOCTYPE svg PUBLIC "-//W3C//DTD SVG 1.1//EN" "http://www.w3.org/Graphics/SVG/1.1/DTD/svg11.dtd">
<svg xmlns="http://www.w3.org/2000/svg" version="1.1" viewBox="0 0 943 1111" width="943.0pt" height="1111.0pt">
<path d="M 0.00 0.00 L 943.00 0.00 L 943.00 1111.00 L 0.00 1111.00 L 0.00 0.00 Z" fill="none" />
<path d="M 489.15 857.29 C 499.40 857.10 509.74 857.51 520.01 857.35 C 525.39 857.05 530.80 858.82 536.22 859.86 C 560.98 867.56 585.30 877.87 607.28 891.72 C 612.32 894.75 615.74 899.01 620.16 902.78 C 624.12 906.18 627.81 909.85 631.61 913.43 C 633.80 915.51 634.91 918.00 636.37 920.58 C 638.17 923.90 640.24 927.36 641.30 930.99 C 641.88 936.03 639.25 938.72 636.27 942.23 C 634.80 944.08 633.74 946.23 632.25 948.05 C 630.94 949.21 629.22 949.96 627.66 950.71 C 616.63 955.55 605.40 959.93 594.04 963.94 C 588.79 966.00 582.60 966.31 577.01 966.91 C 560.90 968.65 544.06 967.00 527.97 965.50 C 515.97 963.46 504.61 959.48 493.46 954.68 C 489.53 952.90 484.71 951.42 481.63 948.37 C 478.22 945.11 475.08 941.58 471.63 938.36 C 469.84 936.60 467.99 935.29 467.24 932.76 C 463.67 921.92 458.60 911.60 460.00 899.95 C 461.55 892.26 465.16 884.99 467.48 877.46 C 468.57 873.59 471.73 872.16 474.34 869.32 C 478.45 864.94 483.72 859.84 489.15 857.29 Z" fill="#6a360e" />
</svg>