<?xml version="1.0" encoding="UTF-8" standalone="no"?>
<!DOCTYPE svg PUBLIC "-//W3C//DTD SVG 1.1//EN" "http://www.w3.org/Graphics/SVG/1.1/DTD/svg11.dtd">
<svg xmlns="http://www.w3.org/2000/svg" version="1.1" viewBox="0 0 943 1111" width="943.0pt" height="1111.0pt">
<path d="M 0.00 0.00 L 943.00 0.00 L 943.00 1111.00 L 0.00 1111.00 L 0.00 0.00 Z" fill="none" />
<path d="M 516.20 554.49 C 524.94 556.80 533.83 558.25 542.49 560.81 C 545.86 561.83 548.40 563.85 551.32 565.72 C 562.54 573.11 574.13 579.83 586.18 585.76 C 593.55 588.98 598.99 595.35 605.62 600.39 C 611.57 604.87 616.57 609.91 621.37 615.60 C 627.56 623.10 634.63 629.66 641.73 636.28 C 646.11 640.35 648.48 645.28 651.94 650.04 C 654.85 654.11 657.97 658.01 661.15 661.88 C 663.92 665.25 665.92 668.96 669.12 671.98 C 675.36 678.61 680.29 686.61 684.11 694.84 C 685.55 698.34 688.82 700.14 690.35 703.54 C 691.78 706.45 691.67 709.75 692.09 712.99 C 692.55 717.06 692.87 721.00 691.71 725.01 C 691.27 727.46 688.91 729.51 687.35 731.36 C 685.52 733.22 683.58 736.03 680.98 736.72 C 672.72 739.20 664.72 741.37 656.02 741.49 C 652.24 741.36 648.49 740.62 644.71 740.31 C 644.22 739.16 643.73 738.01 643.24 736.87 C 639.59 735.31 635.92 733.83 632.23 732.40 C 611.23 724.18 590.98 714.13 571.82 702.24 C 569.45 700.88 568.26 700.02 565.56 701.55 C 545.39 690.57 527.02 677.24 506.97 666.10 C 500.84 662.69 497.04 657.72 491.82 653.19 C 485.37 647.24 478.53 641.81 472.53 635.47 C 471.18 634.01 469.92 632.63 469.50 630.61 C 468.56 626.28 467.94 621.86 467.38 617.47 C 467.06 613.52 466.24 609.32 467.56 605.53 C 470.31 596.91 473.90 588.60 479.09 581.15 C 483.69 573.56 490.03 568.39 496.38 562.38 C 499.13 559.87 501.76 557.12 504.71 554.86 C 508.70 554.33 512.25 553.39 516.20 554.49 Z" fill="#6a360e" />
</svg>