<?xml version="1.0" encoding="UTF-8" standalone="no"?>
<!DOCTYPE svg PUBLIC "-//W3C//DTD SVG 1.1//EN" "http://www.w3.org/Graphics/SVG/1.1/DTD/svg11.dtd">
<svg xmlns="http://www.w3.org/2000/svg" version="1.1" viewBox="0 0 943 1111" width="943.0pt" height="1111.0pt">
<path d="M 0.00 0.00 L 943.00 0.00 L 943.00 1111.00 L 0.00 1111.00 L 0.00 0.00 Z" fill="none" />
<path d="M 639.55 675.78 C 644.05 674.97 649.26 677.44 652.47 680.53 C 656.64 684.64 659.73 690.19 660.59 696.01 C 661.25 700.43 659.59 704.51 656.90 707.94 C 652.94 712.87 647.32 716.73 641.01 717.83 C 635.23 718.97 628.98 716.15 625.67 711.34 C 620.34 703.89 621.07 692.87 626.61 685.72 C 629.89 681.48 634.41 677.51 639.55 675.78 Z" fill="#ffc860" />
<path d="M 669.96 695.07 C 671.50 694.13 673.82 694.26 675.51 694.70 C 678.89 696.45 680.51 701.73 677.65 704.65 C 674.98 707.21 670.69 706.15 668.73 703.24 C 666.66 700.54 667.13 697.04 669.96 695.07 Z" fill="#ffc860" />
<path d="M 665.49 711.64 C 672.01 709.77 676.46 718.68 672.56 723.56 C 670.74 726.19 667.52 726.31 664.77 725.26 C 659.55 722.63 659.06 713.21 665.49 711.64 Z" fill="#ffc860" />
<path d="M 647.37 723.43 C 651.17 721.64 655.15 723.82 655.46 727.99 C 655.42 732.17 650.83 734.82 647.17 732.73 C 643.47 730.83 643.08 724.91 647.37 723.43 Z" fill="#ffc860" />
</svg>