<?xml version="1.0" encoding="UTF-8" standalone="no"?>
<!DOCTYPE svg PUBLIC "-//W3C//DTD SVG 1.1//EN" "http://www.w3.org/Graphics/SVG/1.1/DTD/svg11.dtd">
<svg xmlns="http://www.w3.org/2000/svg" version="1.1" viewBox="0 0 943 1111" width="943.0pt" height="1111.0pt">
<path d="M 0.00 0.00 L 943.00 0.00 L 943.00 1111.00 L 0.00 1111.00 L 0.00 0.00 Z" fill="none" />
<path d="M 776.00 545.21 C 786.37 546.36 796.24 548.72 806.22 551.71 C 809.18 552.60 811.31 554.43 813.71 556.26 C 817.28 559.04 820.86 561.81 824.43 564.59 C 828.02 567.24 829.57 571.34 831.89 575.08 C 835.04 580.81 838.81 585.12 840.44 591.47 C 842.07 597.91 844.72 604.44 845.20 610.99 C 846.24 619.57 844.16 628.76 842.41 637.18 C 840.63 643.08 839.89 650.24 836.21 655.19 C 830.25 664.41 826.67 674.06 821.91 683.88 C 819.00 690.16 815.48 696.07 812.11 702.10 C 810.93 704.20 809.44 706.06 807.86 707.87 C 802.94 713.50 798.34 719.82 792.99 724.99 C 787.13 730.80 780.96 736.28 775.07 742.07 C 770.71 746.23 766.91 750.50 762.05 754.09 C 751.77 761.82 741.25 769.27 730.85 776.84 C 726.48 780.00 722.51 783.31 718.00 786.02 C 707.01 792.63 695.48 797.55 683.84 802.82 C 677.17 805.96 669.58 807.57 662.48 809.66 C 658.23 810.97 653.90 811.18 649.52 811.71 C 635.72 814.83 621.74 815.83 607.76 817.52 C 607.13 818.13 606.49 818.75 605.86 819.37 C 601.57 819.41 597.29 819.24 593.00 819.35 C 583.51 819.77 574.61 817.69 565.11 819.46 C 561.38 820.29 557.79 819.54 554.02 819.79 C 547.96 820.03 541.87 818.83 535.92 819.48 C 532.08 819.89 527.92 819.19 524.07 818.84 C 515.40 818.23 506.65 818.48 497.99 818.12 C 491.22 817.69 484.80 817.07 477.98 817.97 C 475.16 818.37 472.70 819.63 469.98 819.33 C 462.67 818.60 455.33 818.18 448.00 817.64 C 440.39 817.04 433.90 818.69 426.50 816.68 C 423.34 815.74 419.37 815.33 416.63 813.45 C 413.84 810.53 410.98 807.71 408.18 804.82 C 404.48 796.32 405.56 787.69 406.78 778.79 C 409.29 770.86 412.49 763.26 417.50 756.56 C 422.23 755.24 427.07 754.44 432.00 754.74 C 438.96 755.04 445.21 757.28 452.00 758.21 C 455.10 758.59 457.87 760.02 460.97 760.31 C 466.99 760.98 472.99 761.79 479.00 762.53 C 483.66 762.48 488.34 762.45 493.00 762.36 C 499.59 761.44 506.23 761.01 512.84 760.26 C 516.55 758.75 520.00 757.89 523.96 757.21 C 526.57 753.21 531.22 753.52 535.51 751.77 C 542.85 748.93 550.53 746.90 557.71 743.70 C 563.09 740.60 568.09 737.16 573.99 734.94 C 578.09 733.45 580.97 729.90 585.03 728.11 C 588.44 726.56 590.93 724.08 594.04 722.06 C 600.74 717.52 607.35 713.91 612.89 707.91 C 618.80 703.15 624.29 698.01 629.40 692.40 C 631.25 690.17 632.47 687.62 634.58 685.59 C 637.60 682.61 640.55 679.58 643.15 676.22 C 645.32 673.34 648.32 671.37 650.45 668.46 C 658.15 657.99 666.16 648.75 672.31 637.21 C 675.09 632.43 676.67 627.30 679.91 622.95 C 684.04 617.39 687.74 611.57 692.17 606.23 C 697.89 599.12 702.61 591.15 707.42 583.40 C 709.88 580.27 713.23 577.86 715.98 574.97 C 722.34 568.41 730.80 563.63 738.41 558.37 C 743.83 554.96 748.11 551.09 754.49 549.73 C 761.54 548.05 768.76 545.78 776.00 545.21 Z" fill="#944306" class="tailBase" />
</svg>