<?xml version="1.0" encoding="UTF-8" standalone="no"?>
<svg
   version="1.1"
   viewBox="0 0 943 1111"
   width="943.0pt"
   height="1111.0pt"
   id="svg48"
   sodipodi:docname="tail_stripes.svg"
   inkscape:version="1.2.2 (732a01da63, 2022-12-09)"
   xmlns:inkscape="http://www.inkscape.org/namespaces/inkscape"
   xmlns:sodipodi="http://sodipodi.sourceforge.net/DTD/sodipodi-0.dtd"
   xmlns="http://www.w3.org/2000/svg"
   xmlns:svg="http://www.w3.org/2000/svg">
  <defs
     id="defs52" />
  <sodipodi:namedview
     id="namedview50"
     pagecolor="none"
     bordercolor="#000000"
     borderopacity="0.25"
     inkscape:showpageshadow="2"
     inkscape:pageopacity="0.0"
     inkscape:pagecheckerboard="0"
     inkscape:deskcolor="#d1d1d1"
     inkscape:document-units="pt"
     showgrid="false"
     showguides="true"
     inkscape:zoom="0.55963096"
     inkscape:cx="432.42782"
     inkscape:cy="740.66667"
     inkscape:window-width="1350"
     inkscape:window-height="1032"
     inkscape:window-x="26"
     inkscape:window-y="0"
     inkscape:window-maximized="0"
     inkscape:current-layer="svg48">
    <inkscape:grid
       type="xygrid"
       id="grid1913" />
  </sodipodi:namedview>
  <path
     d="m 506.5,760.6 c -1.52,19.76 -5.18,39.4 -9.41,58.74 -6.72,0.32 -13.29,-0.88 -20.02,-0.75 2.62,-18.48 6.51,-36.85 8.65,-55.4 6.98,-0.42 13.89,-1.41 20.78,-2.59 z"
     fill="#6a360e"
     id="path46"
     inkscape:highlight-color="#f65e5e"
     style="image-rendering:auto" class="tailStripes"/>
  <path
     d="M 796.82 547.60 C 800.85 548.02 804.32 551.16 807.66 553.30 C 814.08 557.85 820.91 562.02 826.99 567.01 C 831.55 571.84 835.67 577.43 838.36 583.53 C 840.95 589.23 843.88 594.15 844.67 600.50 C 846.16 608.87 844.94 616.67 844.41 625.02 C 843.36 634.74 843.12 643.97 839.04 653.06 C 834.20 643.12 829.06 633.46 822.47 624.54 C 806.71 603.10 785.97 585.17 762.88 572.00 C 754.01 566.93 744.46 563.74 734.65 561.03 C 741.03 558.52 747.43 555.80 753.36 552.36 C 756.98 550.26 758.49 547.28 762.49 546.43 C 774.10 543.91 785.25 546.19 796.82 547.60 Z"
     fill="#6a360e"
     id="path30" class="tailStripes"/>
  <path
     d="M 711.30 579.11 C 714.13 580.03 716.66 582.20 719.14 583.83 C 737.16 596.22 754.12 609.96 768.59 626.43 C 786.45 646.40 802.18 668.29 815.52 691.52 C 816.31 693.19 817.54 694.50 816.22 696.30 C 810.86 704.15 804.46 711.38 798.79 719.01 C 781.77 694.28 762.29 672.12 741.71 650.30 C 733.07 640.91 724.04 631.94 714.36 623.63 C 706.63 617.24 698.44 611.38 690.01 605.96 C 694.78 598.47 700.94 592.25 706.30 585.22 C 707.93 583.16 709.48 581.00 711.30 579.11 Z"
     fill="#6a360e"
     id="path32"
     inkscape:label="path32" class="tailStripes"/>
  <path
     d="M 674.79 631.53 C 699.00 648.04 720.78 667.97 739.70 690.33 C 753.08 706.32 765.18 723.43 776.03 741.23 C 777.30 742.60 775.42 743.65 774.61 744.63 C 768.81 749.89 762.60 754.69 756.71 759.84 C 742.55 743.21 727.63 727.24 711.56 712.43 C 692.98 694.73 672.94 678.69 650.73 665.74 C 654.83 658.19 660.68 651.61 665.55 644.55 C 668.69 640.28 671.37 635.56 674.79 631.53 Z"
     fill="#6a360e"
     id="path34" class="tailStripes"/>
  <path
     d="M 637.72 685.21 C 661.10 720.88 680.98 758.04 695.04 798.40 C 683.41 802.16 671.91 805.05 660.57 809.76 C 656.18 799.84 651.63 789.99 646.66 780.34 C 636.52 760.61 625.83 741.43 612.16 723.90 C 610.20 721.24 607.87 718.81 606.12 716.01 C 606.29 714.87 607.49 714.05 608.25 713.25 C 618.28 704.12 628.19 694.87 637.72 685.21 Z"
     fill="#6a360e"
     id="path36" class="tailStripes"/>
  <path
     d="m 592.37,723.86 c 1.92,10.64 3.2,21.36 3.94,32.14 0.62,17.22 0.67,34.49 0.08,51.71 -0.08,4.03 -0.68,8 -0.93,12.02 -8.86,0.58 -17.71,0.21 -26.56,1.05 -2.21,-25.04 -5.85,-50.32 -12.54,-74.58 -0.11,-1.06 -0.68,-2.71 0.72,-3.13 12.22,-5.62 23.54,-12.68 35.29,-19.21 z"
     fill="#6a360e"
     id="path38"
     style="display:inline" class="tailStripes"/>
  <path
     d="m 543.8,750.35 c 0.04,6.89 0.01,13.79 -0.43,20.66 -1.27,16.38 -2.71,32.8 -4.9,49.08 -8.68,0.18 -17.32,-0.65 -26,-0.72 0.77,-7.77 1.65,-15.56 2.05,-23.37 0.71,-12.45 2.05,-24.91 2.4,-37.38 5.45,-1.35 11.13,-2.29 16.29,-4.28 3.52,-1.36 7,-2.82 10.59,-3.99 z"
     fill="#6a360e"
     id="path40"
     style="display:inline" class="tailStripes"/>
  <path
     d="m 429.76,753.2 c 4.49,0.25 8.91,1.2 13.41,1.45 -4.64,20.85 -13.88,41.31 -21.89,61.09 -4.15,-2.15 -8.08,-4.67 -11.86,-7.41 3.11,-7.27 6,-14.63 8.98,-21.96 4.52,-10.82 7.91,-22 11.36,-33.17 z"
     fill="#6a360e"
     id="path42"
     style="display:inline" class="tailStripes"/>
  <path
     d="M 454.95 758.23 C 462.10 759.53 468.30 762.92 475.70 763.12 C 472.19 781.86 466.88 800.45 461.11 818.61 C 453.69 818.76 446.27 818.39 438.85 818.42 C 439.92 812.87 441.90 807.66 443.43 802.24 C 447.63 787.67 451.52 773.00 454.95 758.23 Z"
     fill="#6a360e"
     id="path44" class="tailStripes" />
</svg>
