<?xml version="1.0" encoding="UTF-8" standalone="no"?>
<!DOCTYPE svg PUBLIC "-//W3C//DTD SVG 1.1//EN" "http://www.w3.org/Graphics/SVG/1.1/DTD/svg11.dtd">
<svg xmlns="http://www.w3.org/2000/svg" version="1.1" viewBox="0 0 943 1111" width="943.0pt" height="1111.0pt">
<path d="M 0.00 0.00 L 943.00 0.00 L 943.00 1111.00 L 0.00 1111.00 L 0.00 0.00 Z" fill="none" />
<path d="M 420.99 541.72 C 433.44 543.60 445.89 546.46 458.27 548.88 C 461.07 549.42 463.68 550.49 466.23 551.76 C 476.20 556.64 485.97 561.94 495.69 567.30 C 510.66 574.65 523.17 587.69 533.71 600.36 C 537.71 604.71 540.26 609.80 543.16 614.87 C 552.87 632.14 564.25 649.87 571.53 668.26 C 572.99 671.90 574.31 675.58 575.85 679.18 C 576.62 679.40 577.38 679.63 578.14 679.85 C 582.58 693.80 586.86 707.80 590.86 721.88 C 592.50 727.92 594.20 733.58 594.45 739.89 C 594.77 748.58 594.69 757.37 594.15 766.04 C 593.14 774.54 594.21 782.73 591.89 791.01 C 589.08 800.29 586.81 809.54 582.16 818.14 C 579.56 824.23 574.94 827.81 570.74 832.69 C 567.32 836.62 563.64 840.30 560.27 844.26 C 557.12 848.20 552.34 849.96 548.17 853.21 C 539.47 859.86 530.07 864.26 520.57 869.59 C 516.94 871.64 513.03 872.83 509.03 873.89 C 495.36 877.54 481.81 881.72 468.08 885.17 C 462.09 886.76 456.28 886.84 450.00 887.38 C 440.26 887.56 430.69 888.68 420.94 888.12 C 402.56 886.89 383.04 886.41 365.12 882.10 C 353.01 880.01 341.44 876.16 329.56 873.12 C 323.93 871.71 318.92 867.80 313.59 865.31 C 301.87 859.50 290.06 854.00 278.76 847.37 C 273.45 845.00 270.18 840.57 267.39 835.66 C 262.61 825.21 258.78 814.26 255.40 803.28 C 253.76 797.88 253.36 792.59 252.57 787.03 C 249.89 768.84 252.19 751.05 254.21 733.04 C 254.99 725.93 257.11 719.12 258.29 712.03 C 259.37 706.67 259.43 701.27 260.89 695.97 C 262.94 688.00 264.63 679.91 266.91 672.00 C 269.42 663.02 273.91 654.31 277.72 645.74 C 280.84 639.03 283.51 632.50 287.21 626.24 C 292.70 616.88 298.34 607.43 304.71 598.64 C 308.90 593.55 313.57 588.86 317.67 583.68 C 319.29 581.63 320.95 579.66 323.11 578.13 C 335.97 568.69 349.97 560.77 363.77 552.78 C 373.58 547.95 385.19 545.98 395.96 544.55 C 404.26 543.55 412.64 542.13 420.99 541.72 Z" fill="#944306" class="torsoCol"/>
</svg>