<?xml version="1.0" encoding="UTF-8" standalone="no"?>
<!DOCTYPE svg PUBLIC "-//W3C//DTD SVG 1.1//EN" "http://www.w3.org/Graphics/SVG/1.1/DTD/svg11.dtd">
<svg xmlns="http://www.w3.org/2000/svg" version="1.1" viewBox="0 0 943 1111" width="100%" height="100%">
<path d="M 0.00 0.00 L 943.00 0.00 L 943.00 1111.00 L 0.00 1111.00 L 0.00 0.00 Z" fill="none" />
<path d="M 424.01 625.01 C 438.09 625.82 451.11 630.76 463.17 637.86 C 474.12 645.41 483.78 654.64 491.40 665.58 C 505.81 685.35 514.48 707.55 520.91 731.00 C 525.06 745.58 527.01 760.85 527.07 776.00 C 526.57 788.19 525.05 802.20 519.01 813.02 C 516.74 817.41 513.21 820.41 509.58 823.62 C 506.45 826.60 503.47 829.56 499.61 831.62 C 491.17 836.45 482.41 838.01 473.03 839.95 C 456.83 842.88 440.48 844.67 424.00 844.22 C 408.09 844.64 392.30 842.87 376.79 839.34 C 361.16 835.70 344.23 831.02 330.54 822.46 C 326.24 819.82 323.88 816.04 320.80 812.19 C 316.53 806.61 312.89 800.83 311.17 793.94 C 308.78 784.48 308.09 774.52 308.80 764.81 C 309.95 747.42 314.08 729.98 319.53 713.46 C 325.35 696.37 332.50 679.96 343.46 665.49 C 350.47 655.59 358.80 646.77 368.68 639.70 C 374.58 635.88 381.00 632.64 387.75 630.63 C 392.58 629.15 396.99 627.21 401.99 626.30 C 409.28 624.80 416.60 624.71 424.01 625.01 Z" fill="#ffd68c" class="torsoWhite" />
</svg>